# AST/ASF file generated using VICON BodyLanguage
# -----------------------------------------------
:version 1.10
:name VICON
:units
  mass 1.0
  length 0.45
  angle deg
:documentation
   .ast/.asf automatically generated from VICON data using
   VICON BodyBuilder and BodyLanguage model FoxedUp or BRILLIANT.MOD
:root
   order TX TY TZ RX RY RZ
   axis XYZ
   position 0 0 0  
   orientation 0 0 0 
:bonedata
  begin
     id 1 
     name lhipjoint
     direction 0.588788 -0.725889 0.355548 
     length 2.37778 
     axis 0 0 0  XYZ
  end
  begin
     id 2 
     name lfemur
     direction 0.34202 -0.939693 0  
     length 6.86393  
     axis 0 0 20  XYZ
    dof rx ry rz
    limits (-160.0 20.0)
           (-70.0 70.0)
           (-60.0 70.0)
  end
  begin
     id 3 
     name ltibia
     direction 0.34202 -0.939693 0   
     length 7.32851   
     axis 0 0 20   XYZ
    dof rx
    limits (-10.0 170.0)
  end
  begin
     id 4 
     name lfoot
     direction 0.0626533 -0.172138 0.983078   
     length 1.98929   
     axis -90 7.62852e-016 20   XYZ
    dof rx rz
    limits (-45.0 90.0)
           (-70.0 20.0)
  end
  begin
     id 5 
     name ltoes
     direction 1.53647e-011 -4.21734e-011 1   
     length 1.00479   
     axis -90 7.62852e-016 20   XYZ
    dof rx
    limits (-90.0 20.0)
  end
  begin
     id 6 
     name rhipjoint
     direction -0.59141 -0.724168 0.354705   
     length 2.38343  
     axis 0 0 0  XYZ 
  end
  begin
     id 7 
     name rfemur
     direction -0.34202 -0.939693 0   
     length 6.95589   
     axis 0 0 -20   XYZ
    dof rx ry rz
    limits (-160.0 20.0)
           (-70.0 70.0)
           (-70.0 60.0)
  end
  begin
     id 8 
     name rtibia
     direction -0.34202 -0.939693 0   
     length 7.32327   
     axis 0 0 -20   XYZ
    dof rx
    limits (-10.0 170.0)
 end
 begin
     id 9 
     name rfoot
     direction -0.0660461 -0.18146 0.981178   
     length 1.85272  
     axis -90 -7.62852e-016 -20   XYZ
    dof rx rz
    limits (-45.0 90.0)
           (-20.0 70.0)
  end
  begin
     id 10 
     name rtoes
     direction -1.53586e-011 -4.21988e-011 1   
     length 0.93746   
     axis -90 -7.62852e-016 -20   XYZ
    dof rx
    limits (-90.0 20.0)
  end
  begin
     id 11 
     name lowerback
     direction -0.0107982 0.991059 0.13299   
     length 1.98691   
     axis 0 0 0   XYZ
    dof rx ry rz
    limits (-20.0 45.0)
           (-30.0 30.0)
           (-30.0 30.0)
  end
  begin
     id 12 
     name upperback
     direction 0.0076296 0.999916 0.0104576   
     length 1.99501   
     axis 0 0 0   XYZ
    dof rx ry rz
    limits (-20.0 45.0)
           (-30.0 30.0)
           (-30.0 30.0)
  end
  begin
     id 13 
     name thorax
     direction 0.01176 0.998615 -0.0512909   
     length 2.03144   
     axis 0 0 0   XYZ
    dof rx ry rz
    limits (-20.0 45.0)
           (-30.0 30.0)
           (-30.0 30.0)
  end
  begin
     id 14 
     name lowerneck
     direction -0.0171909 0.999644 0.0204011   
     length 1.71818   
     axis 0 0 0   XYZ
    dof rx ry rz
    limits (-20.0 45.0)
           (-30.0 30.0)
           (-30.0 30.0)
  end
  begin
     id 15 
     name upperneck
     direction 0.0250902 0.997482 -0.0663316   
     length 1.66199   
     axis 0 0 0   XYZ
    dof rx ry rz
    limits (-20.0 45.0)
           (-30.0 30.0)
           (-30.0 30.0)
  end
  begin
     id 16
     name head
     direction 0.00881535 0.99956 -0.0283365  
     length 1.81545  
     axis 0 0 0   XYZ
    dof rx ry rz
    limits (-20.0 45.0)
           (-30.0 30.0)
           (-30.0 30.0)
  end
  begin
     id 17 
     name lclavicle
     direction 0.840411 0.486876 -0.238035  
     length 3.30409  
     axis 0 0 0   XYZ
    dof ry rz
    limits (-20.0 10.0)
           (0.0 20.0)
  end
  begin
     id 18 
     name lhumerus
     direction 1 -4.48977e-011 -5.16239e-027   
     length 4.62672   
     axis 180 -30 -90   XYZ
    dof rx ry rz
    limits (-60.0 90.0)
           (-90.0 90.0)
           (-90.0 90.0)
  end
  begin
     id 19
     name lradius
     direction 1 -4.48977e-011 -8.71171e-027   
     length 3.11018   
     axis 180 -30 -90   XYZ
    dof rx
    limits (-10.0 170.0)
  end
  begin
     id 20
     name lwrist
     direction 1 -4.48912e-011 -1.03764e-026   
     length 1.55509   
     axis 9.09556e-015 90 90   XYZ
    dof ry
    limits (-180.0 0.0)
 end
  begin
     id 21 
     name lhand
     direction 1 -4.49072e-011 -2.07528e-026   
     length 0.743834   
     axis 1.3242e-014 90 90   XYZ
    dof rx rz
    limits (-90.0 90.0)
           (-45.0 45.0)
  end
  begin
     id 22 
     name lfingers
     direction 1 -4.48909e-011 -4.15056e-026   
     length 0.599698   
     axis 2.64841e-014 90 90   XYZ
    dof rx
    limits (0.0 90.0)
  end
  begin
     id 23
     name lthumb
     direction 0.707107 -6.35013e-011 0.707107   
     length 0.86105   
     axis -90 45 2.85299e-015   XYZ
    dof rx rz
    limits (-45.0 45.0)
           (-45.0 45.0)
  end
  begin
     id 24 
     name rclavicle
     direction -0.835208 0.500237 -0.228452   
     length 3.2716  
     axis 0 0 0   XYZ 
    dof ry rz
    limits (-10.0 20.0)
           (-20.0 0.0)
  end
  begin
     id 25 
     name rhumerus
     direction -1 -4.48978e-011 -5.1953e-028  
     length 4.55919   
     axis 180 30 90   XYZ
    dof rx ry rz
    limits (-90.0 60.0)
           (-90.0 90.0)
           (-90.0 90.0)
  end
  begin
     id 26 
     name rradius
     direction -1 -4.48961e-011 -5.99546e-027   
     length 3.22748   
     axis 180 30 90   XYZ
    dof rx
    limits (-10.0 170.0)
  end
  begin
     id 27 
     name rwrist
     direction -1 -4.48986e-011 -1.03764e-026   
     length 1.61374   
     axis 9.09556e-015 -90 -90   XYZ
    dof ry
    limits (-180.0 0.0)
  end
  begin
     id 28
     name rhand
     direction -1 -4.4899e-011 -2.07528e-026   
     length 0.700882   
     axis 1.3242e-014 -90 -90   XYZ
    dof rx rz
    limits (-90.0 90.0)
           (-45.0 45.0)
  end
  begin
     id 29
     name rfingers
     direction -1 -4.48991e-011 -4.15056e-026   
     length 0.565069   
     axis 2.64841e-014 -90 -90   XYZ
    dof rx
    limits (0.0 90.0)
  end
  begin
     id 30
     name rthumb
     direction -0.707107 -6.34804e-011 0.707107   
     length 0.811329   
     axis -90 -45 -2.85299e-015   XYZ
    dof rx rz
    limits (-45.0 45.0)
           (-45.0 45.0)
  end
:hierarchy
  begin
    root lhipjoint rhipjoint lowerback
    lhipjoint lfemur
    lfemur ltibia
    ltibia lfoot
    lfoot ltoes
    rhipjoint rfemur
    rfemur rtibia
    rtibia rfoot
    rfoot rtoes
    lowerback upperback
    upperback thorax
    thorax lowerneck lclavicle rclavicle
    lowerneck upperneck
    upperneck head
    lclavicle lhumerus
    lhumerus lradius
    lradius lwrist
    lwrist lhand lthumb
    lhand lfingers
    rclavicle rhumerus
    rhumerus rradius
    rradius rwrist
    rwrist rhand rthumb
    rhand rfingers
  end

#!OML:ASF F:\VICON\USERDATA\INSTALL\SteveWalk\SteveWalk.ASF
:FULLY-SPECIFIED
:DEGREES
224
root 1.50871 16.5739 -5.59377 14.3677 -8.17655 -1.74448
lowerback -14.0002 -2.82144 -2.16671
upperback -2.89985 -3.49665 1.16175
thorax 4.97571 -1.76418 1.8088
lowerneck 4.61628 -9.27425 -8.54078
upperneck 3.16541 -12.8003 4.06683
head 1.088 -6.49541 2.71661
rclavicle -3.2023e-014 -1.72943e-014
rhumerus -28.9204 16.6186 -90.5736
rradius 75.8815
rwrist -31.9491
rhand -16.3025 -40.9639
rfingers 7.12502
rthumb 9.9083 -430.711
lclavicle -3.2023e-014 -1.72943e-014
lhumerus -27.8237 3.47632 77.2595
lradius 38.2567
lwrist 0.299796
lhand -17.0218 -17.1746
lfingers 7.12502
lthumb 9.21433 12.604
rfemur -36.5734 -3.99371 19.4193
rtibia 60.9664
rfoot -9.5529 2.47652
rtoes -15.1724
lfemur -24.9952 3.85769 -23.264
ltibia 34.0713
lfoot -20.1183 1.73165
ltoes -7.52021
225
root 1.50364 16.5642 -5.50443 14.3755 -8.16868 -1.53482
lowerback -14.0494 -2.84543 -2.52909
upperback -2.87623 -3.47116 1.11005
thorax 5.04393 -1.75698 1.96026
lowerneck 4.69173 -9.34279 -8.43913
upperneck 3.06487 -12.8917 4.05987
head 1.04092 -6.53909 2.70231
rclavicle -3.03581e-014 1.19271e-015
rhumerus -28.9132 16.5998 -90.5299
rradius 75.8189
rwrist -31.916
rhand -18.9992 -45.1292
rfingers 7.12502
rthumb 7.30592 -434.983
lclavicle -3.03581e-014 1.19271e-015
lhumerus -27.625 3.25704 77.4183
lradius 38.6638
lwrist 0.561741
lhand -16.986 -17.1246
lfingers 7.12502
lthumb 9.24886 12.6526
rfemur -37.009 -3.66092 19.3786
rtibia 59.7526
rfoot -9.93263 2.38138
rtoes -13.6209
lfemur -24.6812 4.30176 -23.5641
ltibia 34.0142
lfoot -20.483 1.39564
ltoes -8.27999
226
root 1.49243 16.5615 -5.43007 14.6786 -7.57417 -1.71014
lowerback -14.1142 -2.99135 -2.54018
upperback -2.85916 -3.66573 1.19786
thorax 5.11488 -1.85407 2.01867
lowerneck 4.19386 -9.44641 -8.32383
upperneck 3.20659 -12.991 4.18169
head 1.18007 -6.58438 2.68687
rclavicle -2.18042e-014 -2.38542e-015
rhumerus -28.7739 16.4938 -90.461
rradius 75.922
rwrist -32.105
rhand -19.0997 -45.0569
rfingers 7.12502
rthumb 7.20894 -434.914
lclavicle -2.18042e-014 -2.38542e-015
lhumerus -27.2909 2.94449 77.5821
lradius 39.1277
lwrist 0.844666
lhand -17.0064 -17.3287
lfingers 7.12502
lthumb 9.22921 12.4493
rfemur -37.6604 -3.62734 19.982
rtibia 58.4795
rfoot -10.4262 1.70891
rtoes -14.0144
lfemur -24.7555 4.44847 -23.296
ltibia 33.9689
lfoot -20.6882 0.740124
ltoes -9.18903
227
root 1.48898 16.5647 -5.34962 14.8716 -7.03814 -1.72059
lowerback -14.0463 -3.15775 -2.6019
upperback -2.9321 -3.88195 1.2545
thorax 5.02113 -1.96028 2.0772
lowerneck 3.76731 -9.50344 -8.39879
upperneck 3.48828 -13.044 4.28065
head 1.36218 -6.61089 2.69745
rclavicle -1.10574e-014 -2.76311e-014
rhumerus -29.0015 16.4402 -90.456
rradius 76.2178
rwrist -32.2454
rhand -16.6016 -41.0747
rfingers 7.12502
rthumb 9.61971 -430.835
lclavicle -1.10574e-014 -2.76311e-014
lhumerus -27.1763 2.61265 77.7561
lradius 39.6424
lwrist 1.26074
lhand -17.3599 -17.3887
lfingers 7.12502
lthumb 8.88808 12.4041
rfemur -38.1857 -3.66087 20.312
rtibia 57.1443
rfoot -11.3059 1.06053
rtoes -17.7601
lfemur -24.6781 4.43151 -23.2101
ltibia 33.9182
lfoot -20.9652 0.277051
ltoes -9.8651
228
root 1.48385 16.5621 -5.2718 14.9794 -6.96156 -1.61113
lowerback -13.9159 -3.18681 -2.90005
upperback -3.03438 -3.88335 1.29286
thorax 4.86389 -1.96285 2.29411
lowerneck 3.73906 -9.57804 -8.37832
upperneck 3.45582 -13.1386 4.23474
head 1.35785 -6.65716 2.6755
rclavicle 2.41772e-014 -9.74045e-015
rhumerus -29.2022 16.3216 -90.3794
rradius 76.3356
rwrist -32.2184
rhand -16.75 -41.497
rfingers 7.12502
rthumb 9.47661 -431.264
lclavicle 2.41772e-014 -9.74045e-015
lhumerus -27.1965 2.20566 77.9725
lradius 40.1316
lwrist 1.67532
lhand -17.5877 -17.4794
lfingers 7.12502
lthumb 8.66821 12.3226
rfemur -38.6806 -3.2607 20.377
rtibia 55.74
rfoot -12.2589 0.528562
rtoes -19.8123
lfemur -24.4782 4.5846 -23.3259
ltibia 33.8582
lfoot -21.0712 -0.0283571
ltoes -9.26609
229
root 1.48005 16.5608 -5.18888 15.0316 -6.87839 -1.59821
lowerback -13.8367 -3.16621 -3.03475
upperback -3.06564 -3.84044 1.31521
thorax 4.79495 -1.9425 2.40604
lowerneck 3.97833 -9.67053 -8.42054
upperneck 3.13613 -13.2793 4.34253
head 1.2342 -6.72601 2.73685
rclavicle 4.65653e-014 2.5842e-014
rhumerus -29.0888 16.1199 -90.244
rradius 76.0393
rwrist -32.0326
rhand -17.1469 -41.5429
rfingers 7.12502
rthumb 9.09361 -431.327
lclavicle 4.65653e-014 2.5842e-014
lhumerus -27.2737 2.04015 78.1561
lradius 40.7152
lwrist 1.66629
lhand -17.5601 -17.4643
lfingers 7.12502
lthumb 8.69485 12.3366
rfemur -39.0431 -2.88503 20.5427
rtibia 54.2852
rfoot -12.4998 0.156589
rtoes -18.4041
lfemur -24.1002 4.7699 -23.3431
ltibia 33.6692
lfoot -21.1599 -0.630596
ltoes -7.27427
230
root 1.48149 16.5615 -5.09621 15.0333 -6.50408 -1.70282
lowerback -13.8617 -3.1907 -2.83968
upperback -3.01735 -3.90012 1.32736
thorax 4.8519 -1.9705 2.29544
lowerneck 3.90436 -9.71204 -8.58265
upperneck 3.261 -13.3402 4.47528
head 1.31499 -6.759 2.79747
rclavicle 4.17199e-014 -3.18055e-015
rhumerus -28.9449 15.9863 -90.1554
rradius 75.8162
rwrist -32.0338
rhand -18.0024 -42.7039
rfingers 7.12502
rthumb 8.26801 -432.522
lclavicle 4.17199e-014 -3.18055e-015
lhumerus -27.24 1.89658 78.3229
lradius 41.2344
lwrist 1.72828
lhand -17.5917 -17.3985
lfingers 7.12502
lthumb 8.66432 12.4037
rfemur -39.2036 -2.84221 20.859
rtibia 52.7976
rfoot -11.9477 0.0767287
rtoes -15.8293
lfemur -23.6219 4.93111 -23.2141
ltibia 33.4058
lfoot -21.4647 -0.912825
ltoes -7.93464
231
root 1.47905 16.564 -5.00341 15.0181 -6.41364 -1.41017
lowerback -13.8464 -3.23351 -3.13973
upperback -3.03731 -3.90995 1.25203
thorax 4.83719 -1.97823 2.38435
lowerneck 3.93566 -9.67239 -8.84833
upperneck 3.35067 -13.3089 4.75379
head 1.37963 -6.74794 2.93386
rclavicle 4.33599e-015 1.5704e-014
rhumerus -28.9867 16.0253 -90.1634
rradius 75.8971
rwrist -32.3121
rhand -17.6574 -42.8334
rfingers 7.12502
rthumb 8.60096 -432.638
lclavicle 4.33599e-015 1.5704e-014
lhumerus -27.207 1.90788 78.4556
lradius 41.5538
lwrist 1.93594
lhand -17.5206 -17.62
lfingers 7.12502
lthumb 8.73301 12.1793
rfemur -39.427 -2.62028 20.6494
rtibia 51.3097
rfoot -11.8005 0.466366
rtoes -13.178
lfemur -23.1218 5.1093 -23.542
ltibia 33.0246
lfoot -21.6832 -0.96022
ltoes -8.94997
232
root 1.47971 16.5724 -4.90957 15.0367 -6.24919 -1.2368
lowerback -13.8011 -3.27581 -3.30337
upperback -3.13308 -3.94198 1.20506
thorax 4.72077 -1.99318 2.42607
lowerneck 4.2878 -9.66796 -8.97597
upperneck 3.10992 -13.3386 4.98264
head 1.27056 -6.76544 3.05809
rclavicle 3.15571e-014 8.94531e-015
rhumerus -29.4427 16.0329 -90.1965
rradius 76.2101
rwrist -32.4922
rhand -16.8264 -41.6473
rfingers 7.12502
rthumb 9.40283 -431.418
lclavicle 3.15571e-014 8.94531e-015
lhumerus -27.5145 1.96829 78.5847
lradius 42.1546
lwrist 2.02539
lhand -17.3982 -17.6523
lfingers 7.12502
lthumb 8.85108 12.1421
rfemur -39.6083 -2.45427 20.5595
rtibia 49.7596
rfoot -12.6999 1.5249
rtoes -11.97
lfemur -22.578 5.12449 -23.7173
ltibia 32.5822
lfoot -21.6884 -1.36078
ltoes -7.78529
